<svg width="882" height="430" viewBox="0 0 882 430" fill="none" xmlns="http://www.w3.org/2000/svg">
<path d="M1036.93 82.24L1033.38 83.3594C989.028 69.8639 988.065 63.7626 985.176 45.6478L984.72 42.7312C984.365 40.6659 984.112 38.7109 983.858 36.8663C981.02 16.6547 979.955 9.08711 916.139 4.92496C842.793 0.116419 711.257 0.951989 639.127 4.71999C584.688 7.54206 554.681 19.0668 522.899 31.2694C499.938 40.0982 476.165 49.2266 442.305 54.7288C367.895 66.8211 247.612 52.1906 141.42 39.2785C93.2659 33.4136 47.7478 27.8798 12.7729 25.7199L13.736 24.1434C49.2178 26.3348 94.8372 31.8843 143.295 37.7807C248.423 50.5667 367.591 65.0711 439.973 53.2942C472.87 47.9496 496.339 38.9474 518.996 30.2447C549.916 18.3573 581.951 6.06007 638.266 3.12765C710.851 -0.656127 843.249 -1.49168 917.051 3.34839C984.72 7.77855 985.936 16.2605 988.826 36.7717L989.687 42.6208L990.143 45.5375C993.033 63.2266 993.996 69.1703 1036.93 82.24Z" fill="url(#paint0_linear_34_826)" fill-opacity="0.03"/>
<path d="M1041.39 88.436L1037.79 89.5396C993.895 75.8234 992.171 70.0216 987.102 50.819L985.987 46.3888C980.918 25.8934 979.144 19.0511 916.798 14.8574C839.6 9.56014 708.976 8.28313 637.607 12.1142C581.85 15.0781 551.792 26.9497 519.808 39.515C496.39 48.7379 472.11 58.2604 437.034 63.9203C363.029 75.8707 246.75 61.0194 144.157 47.9339C94.8881 41.6276 48.407 35.7154 12.3677 33.524L13.3307 31.9474C49.9783 34.1546 96.7129 40.1298 146.185 46.4361C247.561 59.4113 362.877 74.1049 434.803 62.5014C468.917 56.9834 492.841 47.587 515.905 38.506C547.078 26.256 579.316 13.5962 636.796 10.5218C708.875 6.67501 840.259 7.9678 917.913 13.2808C983.808 17.8056 985.886 25.5781 991.056 46.3888L992.171 50.6456C997.443 69.9428 998.811 75.1297 1041.39 88.436Z" fill="url(#paint1_linear_34_826)" fill-opacity="0.03"/>
<path d="M1052.14 92.1092L1048.69 93.2759C1005.55 81.0732 1001.7 76.0124 993.743 58.5914L993.743 58.0711C983.605 35.8099 981.426 31.159 919.231 26.6342C834.531 20.4383 709.23 14.605 634.921 18.4834C577.086 21.4947 545.71 34.2491 512.458 47.8233C488.179 57.7242 463.088 67.9561 426.744 73.9313C353.145 86.0079 241.631 70.3683 143.245 56.5891C94.4829 49.7468 48.458 43.2986 12.1145 40.9337L13.1283 39.3572C50.0293 41.7536 96.3077 48.249 145.323 55.1229C242.645 68.776 353.145 84.2579 424.362 72.4651C459.844 66.6634 484.478 56.5733 508.454 46.8144C540.793 33.6185 574.349 20.0127 634.11 16.8595C709.129 12.9339 835.241 18.8145 920.397 25.0262C985.988 29.7559 988.421 35.1793 998.761 57.7873L998.761 58.3075C1006.67 75.6971 1010.12 80.2376 1052.14 92.1092Z" fill="url(#paint2_linear_34_826)" fill-opacity="0.03"/>
<path d="M1067.39 93.67L1065.47 95.1362C1022.03 89.6655 1010.67 78.5192 999.572 67.767C988.37 56.731 977.776 46.3729 935.654 41.1229C909.753 37.891 877.414 36.5193 846.088 35.2108C823.683 34.3982 801.445 33.1876 779.484 31.5847C771.881 30.9698 764.277 30.2919 756.269 29.614C714.806 26.0036 671.924 22.2829 630.866 24.8054C571.358 28.463 538.005 42.3211 502.675 56.9832C473.124 69.2647 442.559 81.9561 395.419 87.7736C321.921 96.8231 231.95 81.6565 144.918 66.9944C96.3585 58.812 50.4349 51.0711 10.8474 48.2648L11.9626 46.6882C52.5132 49.5576 98.4367 57.3301 147.351 65.6071C233.521 80.0957 322.276 95.0732 393.544 86.3074C439.163 80.6633 469.576 68.1453 498.62 56.0373C532.936 41.8481 568.469 27.0284 629.852 23.2604C672.126 20.6591 715.617 24.4428 757.637 28.0847C765.443 28.7626 773.148 29.4406 780.751 30.0554C802.474 31.6446 824.477 32.8395 846.646 33.6342C878.225 34.9743 910.919 36.3459 937.378 39.6567C981.73 45.1905 993.135 56.4157 1004.29 67.2782C1015.44 78.1408 1026.13 88.4831 1067.39 93.67Z" fill="url(#paint3_linear_34_826)" fill-opacity="0.03"/>
<path d="M1086.96 93.828L1085.84 95.4045C1048.49 92.7244 1037.54 86.3077 1025.02 78.8821C1020.24 75.9753 1014.94 73.154 1009.15 70.4317C988.876 61.193 981.425 60.4205 954.054 57.5511C949.897 57.1097 945.234 56.6209 940.013 56.0533C915.885 53.3889 889.933 51.3236 864.842 49.4633C835.527 47.3673 806.636 44.7351 778.318 41.5804C770.765 40.6818 763.111 39.7201 755.204 38.7426C712.778 33.4453 669.034 27.9589 625.239 30.4341C561.575 34.0444 526.194 49.4791 488.685 65.8281C457.512 79.3708 425.629 93.355 376.005 99.6613C303.369 108.9 218.872 92.2672 137.061 76.2019C91.0865 67.1839 47.9002 58.6704 9.98535 55.4227L11.3032 53.8461C50.1811 57.1569 93.8237 65.7177 140.001 74.7988C220.696 90.6591 304.129 107.071 374.332 98.132C422.435 92.0149 454.065 78.2199 484.681 64.8664C521.075 48.9903 558.736 32.5625 624.428 28.826C669.541 26.2719 714.096 31.8372 757.181 37.2291C764.987 38.2066 772.691 39.1683 780.244 40.0512C808.439 43.178 837.215 45.7735 866.414 47.8236C891.758 49.7628 917.71 51.7809 942.041 54.4453C947.109 55.0128 951.874 55.5015 956.031 55.943C983.25 58.7966 992.374 59.7583 1013.66 69.4384C1019.59 72.2015 1024.99 75.0705 1029.83 78.0307C1041.9 85.4721 1051.88 91.3054 1086.96 93.828Z" fill="url(#paint4_linear_34_826)" fill-opacity="0.03"/>
<path d="M1109.26 92.9604L1108.86 94.537C1075.86 93.7487 1045.55 88.073 1016.25 82.6023C993.337 78.3141 969.615 73.8681 944.575 71.7398C912.642 68.9965 873.105 62.9583 831.287 56.5574C758.651 45.5214 676.333 32.9088 618.396 35.857C550.221 39.357 510.633 57.4087 472.313 74.8614C439.568 89.7757 405.759 105.21 353.956 112.021C281.573 121.481 203.209 103.255 127.481 85.5663C84.9533 75.6339 44.8082 66.2533 8.26196 62.501L9.88399 61.0033C47.1905 64.8502 87.6397 74.2938 130.522 84.305C205.135 101.726 282.283 119.746 351.979 110.571C402.667 103.933 435.817 88.7037 468.156 73.9785C507.034 56.242 547.281 37.9066 617.535 34.2962C677.093 31.2377 760.171 43.9448 833.466 55.1542C875.082 61.4605 914.568 67.5146 945.893 70.2105C971.592 72.4177 995.618 76.8952 1018.83 81.2465C1049.09 86.8749 1077.48 92.2037 1109.26 92.9604Z" fill="url(#paint5_linear_34_826)" fill-opacity="0.03"/>
<path d="M1133.24 93.1182C1076.67 93.5281 990.6 92.1565 935.299 88.1363C889.984 84.857 845.378 75.098 798.137 64.7557C737.311 51.4179 674.153 37.6387 610.59 39.436C539.931 41.4382 494.565 62.4539 450.77 82.7759C419.242 97.375 386.7 112.478 345.237 119.936C264.136 134.566 191.5 114.56 121.398 95.1993C83.8886 84.8255 45.3655 74.1205 6.69043 69.517L8.46453 68.0508C47.7986 72.7805 86.9299 83.5642 124.743 94.0169C193.477 112.936 264.592 132.643 342.703 118.58C383.253 111.296 413.666 97.0123 446.563 81.9088C491.016 61.2715 537.041 39.9405 610.134 37.8594C675.37 36.0148 739.135 49.9675 800.874 63.4787C847.659 73.7106 892.112 83.3908 936.211 86.607C991.157 90.5957 1076.67 91.9516 1132.93 91.5417L1133.24 93.1182Z" fill="url(#paint6_linear_34_826)" fill-opacity="0.03"/>
<path d="M1157.57 90.0441L1157.57 91.6206C1124.26 91.526 1092.74 95.1364 1062.27 98.6206C1023.7 103.019 983.858 107.576 939.912 104.753C887.652 101.38 838.028 87.9787 790.128 75.0193C731.33 59.1275 670.504 42.6996 603.849 44.1816C529.996 45.837 480.98 69.2176 433.587 91.8414C398.511 108.553 365.411 124.366 322.833 132.17C238.234 147.699 174.57 126.195 112.984 105.368C78.9213 93.8751 43.7436 81.9878 5.42334 76.4698L7.55226 75.0351C46.7343 80.7423 82.2667 92.74 116.684 104.391C179.639 125.659 239.147 145.744 320.197 130.862C361.762 123.231 394.557 107.591 429.278 91.0215C477.382 68.0824 527.056 44.3708 603.443 42.6681C672.227 41.0915 733.813 57.7716 793.372 73.8842C840.816 86.7017 889.68 99.9765 940.875 103.256C983.402 105.983 1020.81 101.679 1060.45 97.1859C1091.37 93.6071 1123.3 89.9495 1157.57 90.0441Z" fill="url(#paint7_linear_34_826)" fill-opacity="0.03"/>
<path d="M1181.59 90.4852C1153.56 93.055 1125.23 98.6991 1095.42 104.674C1046.61 114.402 996.075 124.46 944.322 121.023C888.109 117.287 836.914 101.19 787.188 85.6136C728.137 67.0731 667.108 47.8862 597.006 49.1002C554.479 49.8254 511.698 66.0799 483.414 76.8321L473.276 80.6159C457.461 86.4492 441.596 93.6068 424.717 101.111C389.235 117.066 349.141 135.165 300.784 144.183C212.891 160.611 157.387 137.703 103.759 115.568C73.3458 102.956 41.5643 89.9176 3.7002 83.501L6.13325 82.1136C44.9604 88.6879 77.0968 101.868 107.814 114.622C162.506 137.199 214.259 158.514 298.199 142.843C345.592 133.983 385.433 116.041 420.56 100.276C437.49 92.6609 453.457 85.4717 469.373 79.5911L479.511 75.8231C508.352 64.7871 551.944 48.2804 596.753 47.4448C669.135 46.1993 730.975 65.6384 790.787 84.4312C839.752 99.8343 890.44 115.758 945.184 119.399C994.909 122.71 1044.53 112.825 1092.48 103.271C1122.9 97.2487 1151.38 91.5415 1180.07 88.9086L1181.59 90.4852Z" fill="url(#paint8_linear_34_826)" fill-opacity="0.03"/>
<path d="M1202.83 90.2018C1171.4 94.159 1141.5 102.814 1109.87 112.116C1064.25 125.391 1017.21 139.123 963.938 137.956C893.481 136.38 837.825 116.199 783.995 96.6815C726.463 75.7919 666.955 54.2087 591.379 56.7942C507.287 59.6636 459.286 84.873 412.855 109.247C372.305 130.657 329.98 152.792 263.173 160.233C197.278 167.548 175.128 162.913 136.858 144.247C125.605 138.744 116.279 133.51 107.256 128.481C81.0502 113.772 58.4432 101.064 2.88892 90.6432L5.47403 89.3031C62.1942 99.8662 85.1559 112.747 111.919 127.661C120.891 132.706 130.167 137.925 141.369 143.427C178.524 161.573 198.85 165.798 261.652 158.783C326.736 151.53 368.402 129.632 408.648 108.474C455.687 83.7694 504.348 58.2132 591.126 55.265C669.642 52.5848 730.012 74.4992 788.404 95.6725C841.272 114.954 895.965 134.898 964.293 136.395C1015.39 137.515 1061.66 124.019 1106.22 110.981C1138.2 101.648 1168.46 92.8347 1200.75 88.7671L1202.83 90.2018Z" fill="url(#paint9_linear_34_826)" fill-opacity="0.03"/>
<path d="M1220.57 91.3212C1162.08 100.166 1138.66 108.821 1106.22 120.787C1096.08 124.587 1084.27 128.907 1070.33 133.621C1045.55 142.024 1007.88 153.107 967.486 152.413C893.735 151.136 837.065 128.623 782.322 106.85C724.689 83.8955 664.573 60.0578 586.057 62.6276C498.975 65.4969 449.199 92.1252 401.045 117.886C358.923 140.447 315.331 163.765 246.497 171.49C234.737 175.983 221.862 178.458 208.278 178.837C193.578 179.247 177.865 177.26 161.442 172.798L160.986 172.625L123.78 154.62C113.643 148.629 105.228 143.017 97.3718 137.578C75.1197 122.285 55.9595 109.058 1.57105 97.8639L4.3589 96.5396C60.116 108.001 79.4282 121.402 101.984 136.931C109.841 142.339 117.951 147.967 128.14 153.816L165.041 171.679C180.247 175.762 194.643 177.638 207.821 177.276C220.139 176.929 232 174.58 242.999 170.323L243.405 170.15L244.114 170.15C311.58 162.629 354.868 139.485 396.686 117.098C445.448 90.9901 495.883 64.0149 585.5 61.0667C666.854 58.4023 727.427 82.5397 786.276 105.873C840.36 127.362 896.32 149.591 967.79 150.837C1006.01 151.499 1042.5 140.715 1066.58 132.548C1080.47 127.819 1091.93 123.562 1102.37 119.778C1135.16 107.654 1158.89 98.8887 1218.34 89.9022L1220.57 91.3212Z" fill="url(#paint10_linear_34_826)" fill-opacity="0.03"/>
<path d="M1233.4 94.2695C1172.11 104.344 1147.83 114.387 1114.33 128.26C1103.28 132.832 1090.81 138.004 1075.81 143.6C1056.49 150.821 1016.2 165.862 970.122 165.136C894.089 163.938 836.71 139.738 781.308 116.263C723.118 91.6682 662.9 66.2224 582.357 68.8395C493.145 71.7561 442.052 99.4564 392.631 126.258C349.343 149.749 304.535 174.044 233.824 182.021C222.065 186.641 209.19 189.179 195.605 189.573C180.957 189.983 165.193 187.886 148.922 183.362L148.364 183.172L114.048 164.411C104.468 158.105 97.2703 152.114 90.326 146.375C71.3179 130.609 54.8442 117.067 0.810548 105.305L3.69978 104.013C59.102 116.058 75.7785 129.853 94.9386 145.808C101.832 151.531 108.979 157.443 118.407 163.686L152.419 182.274C167.626 186.436 181.869 188.359 194.997 187.997C207.314 187.65 219.176 185.253 230.175 180.871L230.58 180.697L231.29 180.618C300.632 172.909 345.085 148.787 388.069 125.438C438.149 98.3056 489.901 70.2584 581.698 67.2471C665.131 64.5196 726.21 90.3439 785.262 115.301C839.954 138.429 896.776 162.33 970.223 163.481C1013.76 164.159 1052.95 149.544 1071.6 142.513C1086.45 136.947 1098.92 131.792 1109.92 127.236C1142.56 113.724 1168.36 103.051 1230.71 92.7876L1233.4 94.2695Z" fill="url(#paint11_linear_34_826)" fill-opacity="0.03"/>
<path d="M1240.19 99.5349C1176.78 109.924 1151.18 121.339 1118.54 135.796C1107.03 140.92 1093.95 146.737 1077.99 152.965C1055.63 161.762 1018.28 176.472 971.237 175.699C893.684 174.406 836.153 149.228 780.497 124.886C722.206 99.3614 661.887 72.9696 580.127 75.6971C489.699 78.7083 437.896 107.039 387.816 134.456C343.818 158.53 298.351 183.408 226.424 191.528C214.614 196.147 201.739 198.701 188.104 199.08C173.404 199.505 157.691 197.424 141.217 192.899L140.66 192.679L108.067 173.46C98.8927 166.791 92.4553 160.611 86.17 154.62C69.4936 138.697 55.0981 124.933 1.02734e-06 112.983L2.88923 111.69C59.3559 123.94 73.8528 137.94 90.9347 154.131C97.1694 160.091 103.607 166.24 112.579 172.798L144.867 191.827C160.073 195.974 174.418 197.897 187.597 197.519C199.965 197.156 211.826 194.76 222.825 190.377L223.282 190.188L223.991 190.109C294.499 182.226 339.662 157.568 383.355 133.668C434.043 105.92 486.556 77.2263 579.519 74.1363C664.269 71.2984 725.45 98.0844 784.603 123.972C839.549 148.014 896.117 172.845 971.491 174.122C1015.84 174.848 1052.24 160.548 1073.93 152.05C1089.7 145.855 1102.11 140.321 1114.18 134.96C1147.02 120.33 1172.93 108.774 1237.45 98.1948L1240.19 99.5349Z" fill="url(#paint12_linear_34_826)" fill-opacity="0.03"/>
<path d="M1241 107.544C1178.25 117.934 1151.94 129.395 1118.64 143.9C1106.42 149.213 1093.85 154.699 1078.09 160.816C1054.06 170.134 1017.72 184.197 971.643 183.503C893.988 182.321 836.305 157.112 780.497 132.738C722.104 107.213 661.735 80.8212 579.924 83.4856C489.243 86.4496 437.997 114.891 388.018 142.418C344.528 166.508 298.908 191.481 227.184 199.616C215.374 204.204 202.449 206.726 188.763 207.12C174.013 207.546 158.35 205.544 141.775 201.051L141.217 200.83L108.574 181.517C99.3994 174.769 92.962 168.51 86.7274 162.456C70.3044 146.454 56.3144 132.643 0.557374 120.772L3.4466 119.463C60.3695 131.65 74.8663 145.697 91.5934 162.03C97.7774 168.053 104.164 174.265 113.187 180.949L145.475 200.073C160.682 204.172 175.077 206.048 188.307 205.67C200.725 205.307 212.637 202.927 223.788 198.575L224.245 198.386L224.904 198.386C295.462 190.503 340.321 165.72 383.659 141.756C434.043 113.882 486.151 85.078 579.468 82.0352C664.168 79.2762 725.45 106.046 784.704 131.934C839.752 156.008 896.725 180.902 971.947 182.037C1015.44 182.699 1050.77 168.999 1074.19 159.965C1089.9 153.895 1102.47 148.425 1114.74 143.127C1148.39 128.449 1175 116.862 1238.82 106.299L1241 107.544Z" fill="url(#paint13_linear_34_826)" fill-opacity="0.03"/>
<path d="M1241 117.745C1180.17 127.724 1152.24 138.492 1116.76 152.13C1104.55 156.859 1091.98 161.589 1076.77 166.981C1053.3 175.226 1013.92 189.053 970.325 188.438C893.684 187.382 835.595 162.945 779.483 139.312C720.584 114.513 659.656 88.8618 578.707 91.4947C488.634 94.4271 439.01 122.727 391.161 150.096C349.039 174.107 305.498 198.97 234.433 207.089C222.622 211.677 209.748 214.215 196.062 214.609C181.362 215.035 165.649 213.033 149.124 208.539L148.567 208.334L114.555 188.99C104.975 182.337 98.0307 176.109 91.2892 170.071C73.2949 153.927 57.7336 139.99 2.22998 128.134L5.11921 126.841C61.9407 138.981 77.7554 153.154 96.358 169.551C103.049 175.542 109.942 181.738 119.32 188.28L153.078 207.436C168.285 211.519 182.68 213.411 195.859 213.017C209.038 212.623 220.139 210.274 231.341 205.922L231.797 205.749L232.507 205.67C302.152 197.787 345.339 173.161 387.156 149.323C435.766 121.607 486.1 92.9294 578.809 89.9181C662.596 87.1907 724.385 113.204 784.147 138.366C839.6 161.699 896.928 185.837 971.136 186.846C1012.55 187.413 1050.92 173.965 1073.83 165.925C1089.04 160.612 1101.46 155.787 1113.62 151.121C1149.51 137.357 1177.79 126.463 1239.43 116.326L1241 117.745Z" fill="url(#paint14_linear_34_826)" fill-opacity="0.03"/>
<path d="M1240.9 129.884C1206.84 134.929 1172.88 145.807 1136.89 157.316C1083.21 174.501 1027.65 192.269 967.385 191.291C892.569 190.077 834.176 167.012 777.659 144.704C717.898 121.055 656.007 96.7129 576.528 99.5349C487.874 102.688 441.19 130.656 396.027 157.71C356.338 181.501 315.281 206.095 245.534 214.309C233.926 218.881 221.102 221.404 207.518 221.814C192.818 222.239 177.105 220.237 160.428 215.712L159.871 215.523L123.629 196.131C113.491 189.557 105.685 183.345 98.2845 177.354C78.0092 161.037 60.5724 146.942 4.25781 135.134L7.09636 133.841C64.7289 145.918 82.4698 160.217 103.049 176.787C110.45 182.762 118.256 188.926 128.393 195.39L164.382 214.609C179.588 218.739 194.136 220.631 207.366 220.237C219.683 219.875 231.443 217.494 242.29 213.158L242.746 212.985L243.405 212.985C311.733 205.102 352.435 180.665 391.82 157.064C437.44 129.632 484.934 101.269 576.275 98.0372C658.643 95.1363 721.344 119.873 781.967 143.758C837.725 165.83 895.458 188.564 967.943 189.746C1025.93 190.692 1080.62 173.177 1133.54 156.244C1169.83 144.625 1204.15 133.652 1239.02 128.497L1240.9 129.884Z" fill="url(#paint15_linear_34_826)" fill-opacity="0.03"/>
<path d="M1240.7 143.521C1207.39 147.51 1172.57 156.134 1135.72 165.404C1079.51 179.451 1021.42 193.971 963.685 192.458C892.164 190.582 833.466 169.535 776.696 149.181C712.423 126.132 651.749 104.359 573.943 107.528C487.266 111.06 444.434 138.587 402.971 165.215C366.374 188.722 328.51 213.016 260.487 221.325C249.082 225.866 236.46 228.388 222.977 228.798C208.227 229.255 192.26 227.221 175.533 222.634L175.077 222.46L135.844 203.021C124.845 196.494 116.228 190.33 107.915 184.354C84.8518 167.832 64.982 153.58 7.24805 141.787L10.0359 140.463C69.037 152.476 89.211 166.949 112.528 183.692C120.84 189.636 129.407 195.785 140.254 202.201L179.284 221.514C194.845 225.708 209.443 227.631 222.673 227.221C234.838 226.859 246.395 224.478 257.09 220.19L257.496 220.001L258.155 219.922C324.759 211.929 362.269 187.823 398.561 164.537C440.835 137.499 484.072 109.609 573.385 105.967C653.777 102.688 718.201 125.801 780.548 148.141C836.609 168.258 894.647 189.131 964.09 190.881C1019.85 192.348 1077.13 178.032 1132.58 164.174C1169.73 154.888 1204.86 146.123 1239.02 142.102L1240.7 143.521Z" fill="url(#paint16_linear_34_826)" fill-opacity="0.03"/>
<path d="M1240.44 158.246C1206.84 161.037 1171.25 167.217 1133.59 173.76C1075.5 183.85 1015.44 194.255 959.275 192.379C892.012 190.109 833.011 171.316 775.936 153.154C709.483 131.918 646.326 111.864 571.256 115.427C487.165 119.494 448.692 146.469 411.538 172.577C378.54 195.832 344.528 219.748 278.633 228.167C267.533 232.692 255.165 235.199 241.834 235.625C227.033 236.098 210.914 234.048 193.882 229.318L193.477 229.161L150.899 209.658C138.886 203.21 129.255 197.046 119.979 191.118C93.7225 174.375 71.1155 159.918 11.4048 148.219L14.142 146.895C74.9679 158.83 97.9803 173.476 124.541 190.424C133.817 196.336 143.397 202.469 154.954 208.823L197.279 228.199C213.093 232.487 227.692 234.505 241.124 234.016C253.137 233.638 264.491 231.273 274.832 227.001L275.237 226.827L275.896 226.748C340.473 218.645 374.282 194.917 406.925 171.963C444.688 145.476 483.667 118.091 570.496 113.898C648.201 110.145 715.008 131.429 779.636 152.003C836.052 169.976 894.394 188.548 959.883 190.771C1014.47 192.616 1073.78 182.305 1131.16 172.341C1169.12 165.751 1205.01 159.508 1239.18 156.67L1240.44 158.246Z" fill="url(#paint17_linear_34_826)" fill-opacity="0.03"/>
<path d="M1240.14 173.634C1206.43 175.053 1170.7 178.505 1132.83 182.147C1072.61 187.949 1010.37 193.956 954.459 191.528C892.924 188.848 834.024 172.609 777.05 156.969C709.736 138.445 640.192 119.305 568.215 123.452C487.114 128.181 453.355 154.542 420.763 180.05C391.617 202.911 361.457 226.528 297.235 235.01C227.691 244.201 203.462 234.379 166.561 216.217C153.686 209.911 142.991 203.762 132.651 197.85C102.947 180.87 77.2992 166.224 15.3582 154.589L17.9939 153.233C80.9487 165.089 107.002 179.924 137.01 197.093C147.148 202.99 158.046 209.075 170.819 215.381C210.204 234.773 232.507 241.852 295.208 233.559C357.909 225.267 387.258 202.028 415.998 179.483C449.097 153.564 483.312 126.762 567.252 121.907C641.611 117.618 712.119 137.026 780.142 155.787C836.609 171.301 894.951 187.318 954.966 189.967C1009.76 192.348 1071.55 186.404 1131.16 180.65C1169.17 176.976 1205.11 173.508 1239.28 172.073L1240.14 173.634Z" fill="url(#paint18_linear_34_826)" fill-opacity="0.03"/>
<path d="M1239.78 187.728L1239.78 189.305C1207.6 189.305 1174.45 190.014 1139.27 190.771C1075.3 192.143 1009.1 193.561 949.441 190.329C895.002 187.397 836.964 173.933 780.852 160.911C708.368 144.104 633.451 126.731 565.022 131.413C486.86 136.758 458.069 162.535 430.191 187.444C405.151 209.879 379.199 233.07 317.308 241.726C250.298 251.106 222.673 240.622 183.086 222.728C169.248 216.422 157.438 210.368 146.033 204.487C112.68 187.287 83.9396 172.42 19.6162 160.832L22.1506 159.476C87.5891 171.269 116.684 186.278 150.341 203.62C161.746 209.485 173.506 215.555 187.293 221.782C226.475 239.518 251.768 249.12 315.23 240.244C375.144 231.872 400.69 208.996 425.426 186.893C453.761 161.557 483.008 135.354 563.957 129.821C634.617 124.981 710.497 142.591 783.894 159.602C839.651 172.514 897.08 185.868 950.303 188.737C1009.35 191.89 1075.25 190.519 1138.96 189.147C1174.14 188.438 1207.44 187.728 1239.78 187.728Z" fill="url(#paint19_linear_34_826)" fill-opacity="0.03"/>
<path d="M1240.14 203.289L1239.48 204.866C1164.77 201.854 1088.94 197.503 1015.59 193.309C991.867 191.953 968.196 190.598 944.626 189.289C895.661 186.577 841.577 175.999 784.299 164.805C707.202 149.733 627.52 134.141 561.98 139.375C486.86 145.366 462.784 170.544 439.518 194.87C418.482 216.942 396.737 239.645 337.279 248.474C269.459 258.564 238.589 245.636 199.509 229.271C184.657 223.059 171.833 217.005 159.414 211.14C122.463 193.719 90.5292 178.679 23.9248 167.122L26.3578 165.751C94.0266 177.465 126.264 192.679 163.571 210.257C175.99 216.107 188.915 222.145 203.513 228.309C246.598 246.361 273.97 256.12 334.999 247.039C392.428 238.51 413.869 216.091 434.601 194.413C458.272 169.645 482.755 143.963 560.663 137.83C628.281 132.438 708.976 148.204 786.935 163.449C843.807 174.564 897.486 185.064 945.488 187.728C969.058 189.037 992.78 190.393 1016.45 191.749C1089.65 195.942 1165.68 200.278 1240.14 203.289Z" fill="url(#paint20_linear_34_826)" fill-opacity="0.03"/>
<path d="M1240.39 218.345L1239.18 219.922C1190.97 216.249 1144.9 210.573 1100.29 205.086C1048.99 198.78 995.973 192.253 939.963 188.848C868.999 184.528 810.961 175.92 749.324 166.776C740.15 165.42 730.874 164.048 721.395 162.661C713.082 161.447 704.161 160.028 694.682 158.53C652.763 151.846 600.554 143.537 558.99 147.321C486.708 153.895 467.041 178.505 448.033 202.312C430.799 223.911 413.008 246.235 355.832 255.269C290.646 265.579 257.141 252.462 214.766 235.877C199.053 229.728 185.266 223.69 171.884 217.857C131.333 200.231 96.6118 185.017 27.8279 173.476L30.2102 172.089C100.059 183.803 136.96 199.899 176.04 216.942C189.371 222.76 203.108 228.782 218.77 234.899C259.676 250.933 292.015 263.593 353.55 253.818C408.649 245.116 426.187 223.138 443.117 201.886C462.479 177.654 482.451 152.587 557.571 145.76C601.061 141.803 654.233 150.269 697.014 157.08C706.391 158.578 715.312 159.996 723.575 161.195C733.053 162.582 742.329 163.954 751.504 165.31C815.472 174.769 870.773 182.92 940.976 187.192C997.392 190.645 1050.67 197.204 1102.17 203.541C1146.57 209.044 1192.49 214.751 1240.39 218.345Z" fill="url(#paint21_linear_34_826)" fill-opacity="0.03"/>
<path d="M1240.59 232.519L1238.97 234.001C1190.72 228.94 1146.92 220.852 1104.55 213.033C1052.14 203.337 998.102 193.325 936.008 189.384C855.465 184.213 792.307 176.85 718.049 167.769C709.381 166.713 700.055 165.452 690.17 164.112C648.201 158.42 595.992 151.326 556.252 155.33C486.302 162.377 470.589 186.515 455.382 209.864C441.545 231.068 427.25 253.014 372.203 262.222C309.35 272.737 272.702 259.179 230.276 243.476L228.198 242.688C211.724 236.586 197.025 230.58 182.832 224.778C139.341 206.978 101.731 191.67 31.1726 180.082L33.5043 178.679C105.127 190.361 145.018 206.616 186.887 223.832C201.029 229.618 215.678 235.609 232.05 241.663L234.179 242.451C276.859 258.217 310.566 270.751 369.77 260.834C422.739 251.974 436.831 230.406 450.415 209.548C465.875 185.758 481.892 161.163 554.681 153.832C596.245 149.639 649.468 156.859 692.198 162.661C702.031 164.001 711.307 165.247 719.874 166.303C793.828 175.352 856.732 182.684 936.921 187.839C999.673 191.859 1054.26 201.949 1107.03 211.708C1149.3 219.481 1192.85 227.505 1240.59 232.519Z" fill="url(#paint22_linear_34_826)" fill-opacity="0.03"/>
<path d="M1240.75 245.383L1238.87 246.834C1189.3 240.685 1146.31 230.532 1104.75 220.726C1052.59 208.413 998.71 195.674 932.815 191.386C859.339 186.725 786.799 180.734 715.566 173.444C706.391 172.499 696.456 171.348 685.964 170.118C644.197 165.262 592.19 159.208 554.174 163.307C485.796 170.67 473.073 194.429 461.263 217.415C450.314 238.32 438.96 259.982 385.534 269.316C324.709 280.005 285.222 266.021 243.607 251.217L239.198 249.64C222.116 243.602 206.706 237.611 191.855 231.825C147.655 214.64 105.685 198.402 34.0623 186.877L36.3939 185.474C109.233 197.156 151.304 213.521 195.808 230.847C210.66 236.618 226.221 242.593 242.999 248.6L247.409 250.176C289.43 265.091 325.722 277.971 383.101 267.913C434.398 258.926 445.549 237.69 456.295 217.147C468.613 193.703 481.335 169.472 552.603 161.809C592.393 157.521 645.312 163.686 687.839 168.62C698.281 169.85 708.114 171.001 717.289 171.931C788.334 179.207 860.689 185.181 933.981 189.825C1000.84 194.255 1055.23 207.041 1107.79 219.48C1149.1 229.224 1191.83 239.314 1240.75 245.383Z" fill="url(#paint23_linear_34_826)" fill-opacity="0.03"/>
<path d="M1240.8 256.53L1238.82 257.98C1187.07 251.201 1144.29 239.487 1102.92 228.167C1049.55 213.568 999.115 199.789 930.585 195.359L903.619 193.625C839.397 189.526 778.774 185.647 713.791 179.956C703.907 179.089 693.212 178.001 681.959 176.803C638.671 172.404 589.605 167.343 552.299 171.316C484.326 178.49 474.289 202.138 464.557 225.077C455.788 245.794 446.715 267.235 394.608 276.663C334.948 287.462 295.005 273.683 252.68 259.1L246.497 256.971C229.009 250.965 213.093 244.989 197.684 239.219C151.71 221.877 108.219 205.623 35.7349 194.082L38.0665 192.679C111.362 204.377 155.308 220.805 201.637 238.21C216.844 243.98 232.861 249.94 250.298 255.915L256.482 258.043C297.337 272.138 335.961 285.46 392.073 275.307C442.001 266.257 450.922 245.21 459.539 224.857C469.677 201.492 479.814 177.323 550.778 169.85C589.656 165.767 639.584 170.859 683.632 175.337C694.885 176.487 705.478 177.575 715.261 178.49C780.041 184.15 840.613 187.949 904.734 192.127L931.751 193.861C1001.45 198.355 1054.72 212.938 1106.22 226.969C1147.33 238.226 1189.8 249.845 1240.8 256.53Z" fill="url(#paint24_linear_34_826)" fill-opacity="0.03"/>
<path d="M1240.75 265.595L1238.87 267.046C1183.72 260.219 1140.79 247.591 1099.22 235.357C1047.88 220.269 999.42 206.001 930.027 201.728C917.524 200.951 905.106 200.194 892.772 199.458C831.946 195.737 774.009 192.222 713.386 187.492C702.691 186.656 690.982 185.537 678.513 184.339C635.681 180.255 587.274 175.62 551.792 179.436C483.515 186.782 474.847 210.242 466.433 232.913C458.779 253.487 450.922 274.755 398.865 284.293C339.459 295.156 297.641 280.967 257.141 267.188L249.741 264.665C232 258.69 215.78 252.715 200.117 246.944C153.078 229.602 108.878 213.3 36.4446 201.713L38.7762 200.309C111.919 212.039 156.626 228.498 203.969 245.935C219.632 251.69 235.801 257.649 253.441 263.593L260.892 266.115C301.797 280.021 340.422 293.138 396.027 282.953C445.904 273.809 453.659 252.998 461.111 232.755C469.728 209.58 478.598 185.632 549.916 177.969C587.02 173.981 636.441 178.679 680.033 182.841C692.401 184.023 704.059 185.127 714.602 185.994C775.124 190.724 832.757 194.224 893.735 197.945C906.069 198.691 918.487 199.448 930.991 200.215C1001.95 204.582 1053.1 219.67 1102.72 234.253C1143.93 246.282 1186.51 258.895 1240.75 265.595Z" fill="url(#paint25_linear_34_826)" fill-opacity="0.03"/>
<path d="M1235.32 272.911L1233.45 274.377C1177.69 267.534 1134.81 254.748 1093.4 242.388C1042.71 227.269 994.858 212.985 925.263 208.649C901.592 207.183 877.667 205.764 854.553 204.408C808.427 201.681 760.729 198.875 713.386 195.438C702.387 194.65 690.374 193.546 677.651 192.395C635.985 188.611 588.845 184.339 554.073 188.059C486.81 195.249 476.469 218.219 466.433 240.433C457.36 260.55 447.983 281.424 396.635 290.789C337.685 301.604 297.591 288.061 255.114 273.715L248.22 271.507C230.986 265.721 215.172 259.951 199.864 254.37C153.078 237.327 108.929 221.262 37.3572 209.611L39.7395 208.224C112.325 219.922 156.981 236.145 203.919 253.298C219.125 258.863 234.991 264.618 252.174 270.388L258.865 272.642C299.872 286.516 338.597 299.602 394.05 289.417C443.269 280.383 452.494 259.951 461.415 240.212C471.553 217.526 482.248 194.082 552.4 186.609C588.693 182.731 636.695 187.082 679.121 190.929C691.844 192.08 703.806 193.168 714.603 193.956C761.844 197.377 809.44 200.262 855.516 202.911C878.681 204.267 902.606 205.67 926.48 207.152C997.443 211.582 1048.13 226.685 1097.1 241.3C1137.95 253.503 1180.43 266.179 1235.32 272.911Z" fill="url(#paint26_linear_34_826)" fill-opacity="0.03"/>
<path d="M1220.37 279.233L1218.49 280.683C1162.74 273.794 1120.67 260.803 1079.91 248.253C1030.09 232.897 982.997 218.393 913.402 214.136C890.744 212.764 861.396 210.352 830.324 207.83C737.361 200.199 621.64 190.708 558.787 197.235C492.892 204.078 479.662 226.071 466.889 247.354C455.332 266.604 443.37 286.516 392.631 295.55C333.427 306.082 293.484 292.728 251.16 278.602L246.091 276.931C229.465 271.397 214.208 265.895 199.508 260.613C153.889 244.17 110.804 228.641 40.7021 217.4L43.0338 215.996C113.997 227.379 157.386 243.019 203.361 259.573C218.01 264.87 233.216 270.341 249.791 275.843L254.86 277.53C297.489 291.719 334.339 304.095 390.096 294.179C438.757 285.507 450.517 265.958 461.871 247.055C474.898 225.346 488.381 202.911 557.114 195.737C621.437 189.069 737.97 198.623 831.591 206.301C862.561 208.855 891.808 211.251 914.314 212.607C985.278 216.942 1035.26 232.298 1083.46 247.149C1123.91 259.573 1165.68 272.453 1220.37 279.233Z" fill="url(#paint27_linear_34_826)" fill-opacity="0.03"/>
<path d="M1197.66 284.735L1195.68 286.185C1141.14 278.949 1099.38 265.973 1058.83 253.44C1005.96 236.996 955.98 221.467 880.049 218.062C857.036 217.021 826.978 214.908 795.197 212.701C716.376 207.199 618.295 200.341 562.031 205.118C499.329 210.447 479.764 232.345 460.654 253.519C446.411 269.41 431.711 285.838 398.663 294.951C343.21 310.244 302.963 300.232 252.072 284.435C231.29 277.971 212.941 271.507 195.149 265.248C152.166 250.082 111.514 235.751 45.4163 225.14L47.7479 223.737C114.707 234.489 155.612 248.962 198.951 264.208C216.692 270.435 234.99 276.82 255.671 283.332C306.359 298.987 343.058 308.178 395.317 293.768C427.251 284.971 441.748 268.764 455.788 253.093C475.1 231.494 495.072 209.154 560.561 203.604C618.041 198.717 716.782 205.622 796.16 211.172C827.84 213.379 857.797 215.476 880.657 216.501C958.21 219.985 1011.13 236.413 1062.27 252.32C1102.62 264.76 1144.03 277.624 1197.66 284.735Z" fill="url(#paint28_linear_34_826)" fill-opacity="0.03"/>
<path d="M1169.02 289.622L1167 291.073C1114.48 283.836 1074.19 270.577 1035.21 257.712C983.149 240.559 933.829 224.368 858.76 221.609C841.577 220.994 820.693 220.032 798.593 218.929C722.561 215.302 627.52 210.762 570.851 215.287C509.062 220.206 485.391 240.118 462.479 259.431C445.093 274.014 426.998 289.086 392.732 297.6C335.404 311.789 295.056 301.998 248.271 287.762C228.401 281.723 211.116 275.717 194.339 269.899C153.788 255.852 115.518 242.593 52.0061 232.929L54.2364 231.51C118.56 241.269 156.981 254.638 198.039 268.796C214.766 274.597 232.051 280.573 251.768 286.579C296.729 300.264 335.455 309.676 389.539 296.307C422.892 288.077 440.531 273.21 457.664 258.832C481.031 239.188 505.159 218.881 569.533 213.757C627.216 209.17 722.611 213.757 799.303 217.384C821.352 218.424 842.236 219.417 859.318 220.048C936.364 222.87 988.268 239.976 1038.96 256.624C1077.53 269.347 1117.47 282.543 1169.02 289.622Z" fill="url(#paint29_linear_34_826)" fill-opacity="0.03"/>
<path d="M1136.28 294.1L1134.1 295.503C1082.95 287.793 1044.68 274.455 1007.68 261.543C961.099 245.289 917.051 230.012 850.041 225.282C790.989 221.167 642.219 221.388 582.103 227.048C521.987 232.708 495.224 249.782 469.322 266.32C446.157 281.077 422.232 296.275 374.94 303.764C327.648 311.253 285.019 301.982 252.579 293.201C228.56 286.572 205.94 279.468 184.859 271.933C150.037 259.919 119.928 249.546 59.0513 240.591L61.1802 239.172C123.02 248.253 153.433 258.737 188.661 270.877C209.571 278.364 232.022 285.421 255.874 292.003C287.148 300.453 328.713 309.345 372.457 302.345C418.076 295.14 441.798 280.131 464.608 265.611C491.016 248.773 518.337 231.352 580.481 225.519C641.307 219.812 791.395 219.591 851.004 223.721C919.636 228.451 964.14 244.028 1011.33 260.487C1048.18 273.289 1086.1 286.516 1136.28 294.1Z" fill="url(#paint30_linear_34_826)" fill-opacity="0.03"/>
<path d="M1101.25 298.309L1098.87 299.712C1036.32 289.307 1006.01 279.832 961.708 262.537L948.985 257.523C906.914 240.875 879.137 229.886 810.201 227.647C754.444 225.834 648.657 231.699 591.278 236.429C530.908 241.427 500.597 255.868 468.46 271.113C444.586 282.465 419.952 294.194 381.936 301.494C318.575 313.681 275.845 301.73 230.631 289.071L227.235 288.125C210.305 283.395 196.822 279.138 183.491 275.023C149.682 264.476 122.969 256.104 66.9082 248.222L68.9864 246.787C126.163 254.796 153.18 263.215 187.343 273.888C200.472 277.987 214.056 282.228 230.834 286.911L234.281 287.872C279.9 300.658 319.386 311.694 379.553 300.122C416.556 293.012 440.937 281.424 464.456 270.167C495.68 255.3 528.019 239.929 590.264 234.789C647.998 230.059 754.646 224.116 810.961 225.945C881.925 228.262 910.361 239.472 953.192 256.435L965.915 261.433C1009.51 278.681 1039.51 288.046 1101.25 298.309Z" fill="url(#paint31_linear_34_826)" fill-opacity="0.03"/>
<path d="M1065.67 302.487L1063.19 303.859C1001.55 293.075 973.467 283.789 929.977 265.721C924.908 263.688 920.295 261.638 915.632 259.636C879.593 244.249 848.521 230.958 784.857 230.454C750.084 230.17 703.755 235.704 662.546 240.575C640.547 243.192 619.816 245.652 602.075 247.134C544.037 251.989 509.265 263.987 472.516 276.71C444.232 286.485 414.984 296.591 374.332 302.96C300.48 314.548 236.106 296.402 173.86 278.87C139.697 269.237 107.408 260.14 74.4102 256.01L76.2856 254.544C110.145 258.785 142.738 267.96 177.257 277.703C238.082 294.888 301.341 312.656 372.051 301.557C411.842 295.329 440.785 285.318 468.714 275.654C504.196 263.325 541.249 250.586 600.757 245.699C618.244 244.233 638.874 241.789 660.721 239.188C702.184 234.253 749.223 228.672 785.009 228.956C850.903 229.476 882.938 243.066 919.738 258.785C924.401 260.787 929.115 262.821 934.032 264.854C977.066 282.654 1004.84 291.829 1065.67 302.487Z" fill="url(#paint32_linear_34_826)" fill-opacity="0.03"/>
<path d="M1031.45 306.791L1028.77 308.131C962.873 295.424 935.502 284.357 892.923 265.879C889.223 264.303 885.32 262.521 881.214 260.645C854.857 248.632 818.817 232.188 770.917 232.03C740.96 231.936 707.05 239.141 674.254 246.109C651.09 251.028 629.243 255.679 609.221 257.744C563.298 262.474 523.457 271.933 484.984 281.014C443.572 290.821 400.741 300.958 350.762 305.026C279.798 310.764 231.645 297.947 180.449 284.357C150.037 276.316 118.661 267.992 81.8608 263.719L83.6349 262.237C121.246 266.604 153.027 275.023 183.744 283.158C233.926 296.465 281.319 309.03 349.495 303.496C398.46 299.508 439.01 289.922 481.892 279.753C520.72 270.562 560.915 261.071 607.599 256.246C626.962 254.244 648.555 249.672 671.365 244.816C704.819 237.706 739.439 230.359 770.968 230.454C821.656 230.627 858.455 247.465 885.371 259.746C889.477 261.623 893.38 263.388 897.029 264.965C939.202 283.269 966.269 294.242 1031.45 306.791Z" fill="url(#paint33_linear_34_826)" fill-opacity="0.03"/>
<path d="M999.977 311.379L997.899 312.813C965.561 308.334 936.488 301.857 912.447 293.775C888.406 285.693 869.899 276.176 858.05 265.8C836.356 246.708 794.487 236.634 733.509 235.845C708.723 237.8 694.327 244.233 679.019 251.043C663.712 257.854 648.606 264.618 622.096 268.086L621.286 268.086C568.715 269.089 518.523 275.255 477.939 285.696C433.075 296.81 381.301 304.916 325.874 309.503C266.316 311.41 222.775 300.406 180.653 289.764C152.217 282.543 122.868 275.118 88.6028 271.507L90.2755 269.931C125.402 273.715 155.055 281.203 183.745 288.455C226.982 299.381 267.786 309.708 324.861 307.879C379.49 303.342 430.518 295.345 474.746 284.388C516.076 273.808 567.098 267.562 620.525 266.541C645.464 263.23 660.417 256.561 674.863 250.113C690.779 243.019 705.783 236.318 732.648 234.253L733.002 234.253L733.357 234.253C796.819 235.057 840.36 245.494 862.815 265.28C874.456 275.451 892.615 284.782 916.192 292.706C939.769 300.63 968.273 306.982 999.977 311.379Z" fill="url(#paint34_linear_34_826)" fill-opacity="0.03"/>
<path d="M973.822 316.519L971.643 317.938C905.393 308.163 859.52 292.066 835.241 270.104C815.371 250.776 774.415 240.559 713.589 239.724C688.752 242.467 682.466 249.435 675.775 256.814C668.78 264.539 660.822 273.289 630.156 278.003L629.142 278.098C575.935 278.601 524.117 283.498 479.004 292.287C429.643 301.656 375.377 308.257 318.677 311.789C261.805 313.082 223.991 304.363 183.947 295.125C156.931 288.897 128.951 282.512 94.3813 279.201L95.8513 277.625C131.333 280.951 159.566 287.478 187.09 293.8C226.323 302.85 263.427 311.411 318.068 310.165C374.014 306.674 427.568 300.17 476.317 290.947C521.997 282.03 574.478 277.051 628.382 276.521C656.818 272.091 663.864 264.113 671.011 256.388C678.158 248.663 684.849 241.159 712.524 238.179L712.98 238.179L713.487 238.179C776.797 238.999 819.375 249.577 840.208 269.631C863.829 291.136 908.84 306.917 973.822 316.519Z" fill="url(#paint35_linear_34_826)" fill-opacity="0.03"/>
<path d="M954.409 322.383L952.077 323.771C882.736 312.467 835.19 294.762 810.86 271.176C789.926 250.381 750.034 242.23 689.208 246.251C675.196 254.489 671.58 264.059 679.07 273.084L679.07 273.21L679.07 273.336C677.854 278.681 672.684 282.512 663.61 284.735C654.537 286.958 643.082 287.478 628.129 286.705C588.624 287.945 549.847 290.852 512.864 295.345C455.459 303.303 396.014 309.752 335.151 314.626C269.256 317.401 229.77 309.439 187.851 301.005C161.543 295.708 134.273 290.221 98.7913 286.989L100.211 285.413C136.402 288.723 163.976 294.257 190.638 299.602C231.747 307.879 270.574 315.683 334.188 313.003C394.706 308.152 453.812 301.734 510.887 293.816C548.452 289.247 587.845 286.293 627.977 285.034L628.382 285.034C642.22 285.759 652.966 285.208 660.366 283.458C667.767 281.708 672.734 278.129 673.9 273.304C666.248 263.805 670.374 253.759 685.457 245.163L686.015 244.847L687.13 244.847C750.693 240.496 793.93 249.23 815.675 270.766C839.6 293.879 886.284 311.268 954.409 322.383Z" fill="url(#paint36_linear_34_826)" fill-opacity="0.03"/>
<path d="M943.511 329.131L941.179 330.519C871.635 319.151 824.596 301.32 801.685 277.499C781.41 256.562 741.67 248.3 680.49 252.273C668.585 261.527 668.26 271.832 679.577 281.156L679.577 281.393C680.186 287.1 676.131 291.167 667.463 293.516C658.795 295.866 647.188 296.402 631.576 295.582C591.738 296.972 552.435 299.575 514.232 303.354C454.47 310.093 393.384 315.638 331.349 319.956C267.178 322.289 228.604 315.115 187.8 307.532C162.101 302.802 135.591 297.836 100.819 294.793L102.188 293.217C137.669 296.37 164.433 301.32 190.385 306.129C230.429 313.586 268.293 320.618 330.538 318.347C392.288 314.04 453.101 308.521 512.61 301.825C551.275 297.998 591.053 295.357 631.373 293.942L632.082 293.942C646.427 294.715 657.427 294.147 664.117 292.271C670.808 290.395 675.015 286.643 674.255 281.503C662.48 271.712 663.059 260.897 675.877 251.233L676.384 250.839L677.702 250.744C741.772 246.424 784.958 255.237 806.095 276.978C829.158 300.453 875.234 317.969 943.511 329.131Z" fill="url(#paint37_linear_34_826)" fill-opacity="0.03"/>
<path d="M942.345 336.651L940.013 338.039C870.773 326.735 824.089 308.998 801.28 285.334C781.004 264.618 741.062 256.293 679.932 259.935C668.247 269.383 668.247 279.843 679.932 289.291L679.932 289.527C680.692 295.25 676.739 299.35 668.122 301.746C659.505 304.142 647.846 304.741 632.184 303.985C592.445 305.651 553.144 308.206 514.587 311.631C454.572 317.527 392.935 322.667 331.349 326.766C267.532 328.989 227.59 322.036 185.265 314.721C159.921 310.338 134.07 305.813 101.123 302.802L102.593 301.226C136.047 304.379 162.303 308.856 187.749 313.271C229.313 320.491 268.546 327.302 330.538 325.158C391.668 321.027 453.203 315.951 513.016 310.054C551.957 306.601 591.647 304.025 631.778 302.345L632.488 302.345C646.883 303.054 657.832 302.44 664.624 300.516C671.416 298.593 675.421 294.825 674.762 289.654C662.634 279.729 662.96 268.748 675.674 258.895L676.181 258.501L677.499 258.406C741.569 254.433 784.806 263.309 806.044 284.814C828.55 308.131 874.423 325.552 942.345 336.651Z" fill="url(#paint38_linear_34_826)" fill-opacity="0.03"/>
<path d="M946.704 342.895L944.373 344.298C911.766 339.236 882.846 332.147 859.402 323.469C835.957 314.791 818.487 304.71 808.072 293.848C787.036 274.03 747.854 266.037 688.245 269.411C674.313 278.354 671.061 288.547 679.07 298.167L679.07 298.278L679.07 298.309C678.462 303.843 673.545 307.769 664.523 310.212C655.5 312.656 644.248 313.239 628.585 312.609C589.859 314.516 550.778 316.881 512.509 319.609C453.812 324.465 393.746 328.753 334.086 332.347C271.689 334.287 227.641 328.059 180.45 321.485C154.096 317.562 126.793 314.288 98.7913 311.694L100.16 310.118C128.417 312.72 155.961 316.02 182.528 319.987C228.807 326.483 272.551 332.6 333.326 330.724C392.682 327.145 452.646 322.841 511.292 318.016C549.866 315.257 589.2 312.893 628.179 310.969L628.889 310.969C642.98 311.552 653.878 310.875 661.228 308.951C668.578 307.028 673.393 303.307 674.002 298.309C665.772 288.268 669.368 277.642 684.139 268.354L684.697 267.992L685.964 267.992C748.311 264.303 790.99 272.848 812.685 293.406C822.938 304.07 840.124 313.965 863.178 322.478C886.231 330.991 914.661 337.94 946.704 342.895Z" fill="url(#paint39_linear_34_826)" fill-opacity="0.03"/>
<path d="M954.864 347.703L952.685 349.122C921.44 344.687 893.532 338.263 870.762 330.266C847.993 322.269 830.867 312.875 820.49 302.692C798.39 284.104 759.664 276.757 702.082 280.226C684.614 288.417 676.657 298.217 679.526 308.005L679.526 308.21C673.849 318.442 655.195 323.061 624.225 321.942C561.321 331.496 439.973 334.287 359.582 336.131C352.232 336.289 345.237 336.462 338.698 336.62C277.872 338.07 227.184 333.309 173.454 328.28C148.364 325.931 122.462 323.55 95.1411 321.706L96.1549 320.129C123.679 321.942 149.732 324.37 174.924 326.735C228.248 331.732 278.582 336.446 338.293 335.012C344.831 334.854 351.826 334.696 359.227 334.523C439.517 332.663 560.814 329.872 622.806 320.334L623.464 320.239L624.225 320.239C652.813 321.343 669.287 317.307 674.913 307.926C671.996 297.708 680.461 287.488 698.889 278.98L699.446 278.697L700.46 278.697C760.627 274.944 802.749 282.827 825.761 302.109C835.841 312.093 852.538 321.309 874.775 329.162C897.012 337.015 924.295 343.332 954.864 347.703Z" fill="url(#paint40_linear_34_826)" fill-opacity="0.03"/>
<path d="M966.016 351.361L964.09 352.827C934.604 349.263 907.982 343.736 886.091 336.633C864.2 329.53 847.571 321.024 837.37 311.71C813.648 294.699 775.277 288.235 720.179 292.019C698.333 299.377 684.438 308.677 680.439 318.616L680.439 318.773C669.389 328.343 648.303 332.663 617.788 331.622C561.372 338.559 473.276 338.938 402.414 339.253C381.632 339.347 361.863 339.426 344.629 339.663C280.559 340.546 216.895 337.787 155.359 335.122C133.918 334.192 111.768 333.23 89.8196 332.426L90.4279 330.85C112.376 331.654 134.577 332.616 156.323 333.546C217.301 336.147 280.762 338.969 344.528 338.086C361.914 337.85 381.581 337.771 402.465 337.676C473.124 337.361 561.068 336.983 616.622 330.093L617.231 330.093L617.839 330.093C646.376 331.118 665.283 327.287 675.674 318.363C679.859 308.053 694.385 298.416 717.188 290.821L717.745 290.631L718.506 290.631C775.936 286.595 817.601 293.532 842.286 311.221C852.268 320.311 868.513 328.612 889.884 335.546C911.256 342.479 937.239 347.877 966.016 351.361Z" fill="url(#paint41_linear_34_826)" fill-opacity="0.03"/>
<path d="M979.296 354.167L977.877 355.744C951.903 353.609 927.95 349.571 908.02 343.967C888.09 338.364 872.764 331.357 863.322 323.534C841.475 309.156 804.726 302.266 754.291 303.039C721.8 305.183 705.985 313.034 689.208 321.343C671.771 329.998 653.726 338.953 615.051 342.154C559.294 346.789 489.243 345.102 421.523 343.462C389.336 342.674 358.923 341.886 331.552 341.886C292.826 341.886 253.593 342.327 215.678 342.753C172.39 343.241 127.633 343.746 83.4326 343.588L83.4326 342.012C127.531 342.169 172.238 341.665 215.222 341.176C253.238 340.75 292.471 340.309 331.298 340.309C358.872 340.309 389.387 341.066 421.675 341.886C488.938 343.462 558.533 345.196 613.479 340.64C650.178 337.597 667.716 328.895 684.443 320.507C701.17 312.12 718.201 303.764 753.176 301.478C806.297 300.595 844.415 307.784 867.529 322.841C876.731 330.465 891.687 337.289 911.137 342.741C930.587 348.192 953.962 352.111 979.296 354.167Z" fill="url(#paint42_linear_34_826)" fill-opacity="0.03"/>
<path d="M994.047 356.438L993.134 358.014C943.004 355.176 906.66 346.537 885.219 332.316C861.7 319.987 826.167 314.548 779.788 316.251C743.292 318.111 721.04 325.71 697.521 333.703C673.089 342.012 647.846 350.604 605.167 352.622C554.478 355.082 500.445 351.598 448.033 348.208C412.044 345.89 374.839 343.478 339.915 343.147C286.743 342.643 234.737 346.095 184.454 349.453C148.79 352.045 112.673 353.992 76.2856 355.287L75.8293 353.71C112.015 352.429 147.93 350.491 183.39 347.908C234.078 344.55 286.287 341.082 340.067 341.602C375.549 341.949 412.855 344.361 449.098 346.694C501.002 350.052 554.63 353.521 604.305 351.093C645.261 349.107 669.896 340.719 693.719 332.6C716.833 324.717 740.707 316.613 779.027 314.658C827.739 312.877 864.893 318.568 889.629 331.544C898.869 338.096 913.289 343.814 931.546 348.167C949.803 352.519 971.304 355.365 994.047 356.438Z" fill="url(#paint43_linear_34_826)" fill-opacity="0.03"/>
<path d="M1010.06 358.518L1008.49 360.016C978.739 357.052 953.344 350.904 928.811 344.944C891.099 335.816 855.465 327.192 806.297 329.604C766.912 331.528 737.26 338.89 708.57 346.016C676.181 354.057 642.676 362.365 594.877 363.217C547.078 364.068 502.421 358.739 459.184 353.6C423.702 349.359 386.751 344.976 348.684 344.14C289.885 342.8 232.101 349.69 176.597 356.359C141.47 360.552 105.127 364.904 68.9355 367.126L67.9724 365.55C103.454 363.358 139.848 359.039 174.773 354.861C230.986 348.129 289.125 341.176 349.089 342.548C387.866 343.431 425.122 347.845 461.009 352.133C503.739 357.21 547.99 362.476 594.572 361.593C641.155 360.71 673.646 352.606 705.377 344.723C734.573 337.471 764.784 329.967 805.486 327.98C856.884 325.458 895.002 334.696 931.903 343.636C956.132 349.579 981.172 355.633 1010.06 358.518Z" fill="url(#paint44_linear_34_826)" fill-opacity="0.03"/>
<path d="M1025.22 360.584L1024.36 362.16C994.757 360.505 969.869 356.343 945.843 352.338C915.43 347.246 886.639 342.437 849.535 342.516C801.736 342.611 760.983 350.194 721.547 357.525C680.135 365.235 637.303 373.212 585.804 372.707C539.576 372.266 501.611 365.66 464.862 359.291C435.513 354.214 405.252 348.949 370.886 346.836C303.977 342.658 236.511 353.489 171.377 363.91C135.135 369.712 97.6763 375.719 61.5356 378.84L60.167 377.264C95.6488 374.205 131.384 368.498 169.096 362.46C234.991 351.897 303.116 340.955 371.849 345.212C406.976 347.388 437.744 352.717 467.244 357.825C505.159 364.399 540.945 370.595 585.905 371.036C635.884 371.525 678.107 363.674 718.911 356.075C758.904 348.633 800.266 340.94 849.433 340.845C887.804 340.766 918.471 345.89 948.174 350.856C971.947 354.892 996.429 358.976 1025.22 360.584Z" fill="url(#paint45_linear_34_826)" fill-opacity="0.03"/>
<path d="M1039.56 364.525C1008.75 365.219 981.476 362.586 955.118 360.048C930.078 357.636 904.43 355.145 875.284 355.491C826.928 356.075 781.562 362.807 737.666 369.318C686.977 376.838 634.616 384.611 577.693 382.798C530.756 381.3 497.758 373.023 465.825 365.014C439.669 358.455 412.653 351.66 377.982 348.633C310.719 342.753 236.055 357.509 163.469 371.762C124.794 379.377 88.2985 386.581 54.5402 390.255L52.8674 388.773C86.0682 385.147 122.361 378.005 160.783 370.437C234.129 355.98 309.958 341.05 379.35 347.12C414.832 350.273 442.457 357.131 469.018 363.784C501.813 372.014 532.784 379.786 578.2 381.237C633.957 383.003 683.176 375.656 735.334 367.883C779.686 361.309 825.508 354.498 874.929 353.915C904.734 353.568 931.041 356.091 956.436 358.55C983.605 361.151 1009.2 363.627 1039.06 362.949L1039.56 364.525Z" fill="url(#paint46_linear_34_826)" fill-opacity="0.03"/>
<path d="M1052.49 367.678C1025.18 368.387 997.746 368.524 970.375 368.088C939.656 367.545 908.844 367.82 878.275 368.908C839.752 370.626 798.644 375.687 755.102 381.047C691.489 388.93 625.746 396.986 566.796 394.133C518.692 391.815 491.118 381.394 464.456 371.32C445.195 364.036 425.274 356.5 397.7 352.101C330.994 341.444 238.082 362.128 156.373 380.29C116.431 389.261 78.8706 397.633 48.3563 401.417L46.5315 399.95C76.4376 396.261 113.845 387.921 153.433 379.092C236.46 360.583 330.842 339.599 400.031 350.714C428.518 355.27 448.743 362.917 468.359 370.327C495.629 380.637 521.379 390.365 567.556 392.603C625.188 395.378 690.272 387.354 753.227 379.597C797.072 374.205 838.434 369.097 877.565 367.363C908.42 366.263 939.52 365.983 970.527 366.527C997.661 366.964 1024.86 366.827 1051.93 366.117L1052.49 367.678Z" fill="url(#paint47_linear_34_826)" fill-opacity="0.03"/>
<path d="M1062.73 371.73C1030.39 372.66 997.595 374.631 965.915 376.538C942.852 377.926 919.028 379.376 895.458 380.401C858.101 381.978 815.523 386.707 770.41 391.437C697.267 399.32 621.64 407.55 560.054 403.718C509.974 400.565 486.252 388.867 463.29 377.516C446.715 369.318 429.633 360.852 402.464 355.649C349.343 345.37 303.876 356.138 259.878 366.543C253.644 368.009 247.51 369.475 241.377 370.847C223.18 374.962 206.706 378.919 190.689 382.75C144.461 393.881 104.519 403.498 43.1355 411.791L41.1587 410.34C101.985 402.126 141.623 392.572 187.597 381.505C203.564 377.674 220.088 373.701 238.285 369.57C244.317 368.198 250.45 366.748 256.634 365.282C299.871 355.05 348.887 343.462 404.999 354.246C432.928 359.638 450.365 368.261 467.193 376.601C490.611 388.189 512.813 399.131 560.713 402.11C620.931 405.847 695.899 397.743 768.535 389.892C813.901 384.989 856.682 380.433 894.546 378.714C917.964 377.689 941.787 376.255 964.749 374.867C996.907 372.75 1029.39 371.14 1062.07 370.043L1062.73 371.73Z" fill="url(#paint48_linear_34_826)" fill-opacity="0.03"/>
<path d="M1069.62 377.027C1039.56 377.516 1012.35 380.638 983.453 383.948C959.325 386.707 934.336 389.577 907.421 390.775C871.229 392.351 828.398 396.592 783.032 401.07C702.437 408.953 619.157 417.214 555.492 412.847C503.283 409.252 482.755 396.592 462.885 384.358C448.439 375.451 433.536 366.243 406.469 360.489C353.753 349.327 305.65 361.451 263.274 372.156C256.432 373.89 249.943 375.514 243.506 377.043C224.143 381.647 206.808 386.077 190.03 390.349C143.346 402.284 103.049 412.579 39.9928 421.471L37.9146 420.036C100.312 411.239 140.406 400.991 186.837 389.135C203.614 384.847 221 380.401 240.414 375.797C246.801 374.221 253.238 372.644 260.081 370.942C303.876 359.906 353.5 347.293 409.307 359.196C437.49 365.171 452.696 374.552 467.396 383.633C487.671 396.104 506.679 407.881 556.607 411.302C618.903 415.59 701.525 407.439 781.46 399.572C827.08 395.079 870.114 390.838 906.711 389.214C933.12 388.047 957.855 385.21 981.78 382.466C1009.66 379.313 1038.5 375.955 1069.32 375.451L1069.62 377.027Z" fill="url(#paint49_linear_34_826)" fill-opacity="0.03"/>
<path d="M1072.36 382.277L1072.36 383.854C1051.73 383.854 1039.67 385.951 1026.74 388.221C1020.23 389.417 1013.45 390.47 1006.47 391.374C973.112 395.489 954.763 397.759 913.249 399.73C878.173 401.401 836.254 405.295 791.851 409.426C710.75 416.962 619.511 425.491 553.616 421.155C498.975 417.529 480.575 404.381 462.783 391.658C449.756 382.34 436.324 372.739 408.699 366.685C356.084 355.192 307.322 367.836 264.085 378.998C257.293 380.748 250.906 382.419 244.57 383.948C224.295 388.883 206.301 393.644 188.813 398.232C142.586 410.482 102.643 421.045 38.4212 430L36.343 428.565C99.9061 419.705 139.595 409.205 185.518 397.034C202.955 392.43 221 387.669 241.276 382.703C247.51 381.126 253.897 379.55 260.638 377.784C302.963 366.843 355.628 353.221 411.385 365.392C440.176 371.698 453.963 381.505 467.142 391.027C485.238 403.955 502.269 416.158 554.377 419.61C618.7 423.867 709.686 415.385 789.976 407.912C834.531 403.766 876.602 399.856 912.033 398.169C952.989 396.214 970.071 394.117 1004.13 389.908C1010.98 389.007 1017.6 387.953 1023.95 386.755C1037.69 384.469 1050.36 382.23 1072.36 382.277Z" fill="url(#paint50_linear_34_826)" fill-opacity="0.03"/>
<defs>
<linearGradient id="paint0_linear_34_826" x1="12.7729" y1="41.6797" x2="1036.93" y2="41.6797" gradientUnits="userSpaceOnUse">
<stop stop-color="white" stop-opacity="0"/>
<stop offset="0.479167" stop-color="#F8F8F8"/>
<stop offset="1" stop-color="white"/>
</linearGradient>
<linearGradient id="paint1_linear_34_826" x1="12.3677" y1="48.9197" x2="1041.39" y2="48.9197" gradientUnits="userSpaceOnUse">
<stop stop-color="white" stop-opacity="0"/>
<stop offset="0.479167" stop-color="#F8F8F8"/>
<stop offset="1" stop-color="white"/>
</linearGradient>
<linearGradient id="paint2_linear_34_826" x1="12.1145" y1="54.4335" x2="1052.14" y2="54.4335" gradientUnits="userSpaceOnUse">
<stop stop-color="white" stop-opacity="0"/>
<stop offset="0.479167" stop-color="#F8F8F8"/>
<stop offset="1" stop-color="white"/>
</linearGradient>
<linearGradient id="paint3_linear_34_826" x1="10.8474" y1="58.7678" x2="1067.39" y2="58.7678" gradientUnits="userSpaceOnUse">
<stop stop-color="white" stop-opacity="0"/>
<stop offset="0.479167" stop-color="#F8F8F8"/>
<stop offset="1" stop-color="white"/>
</linearGradient>
<linearGradient id="paint4_linear_34_826" x1="9.98535" y1="65.249" x2="1086.96" y2="65.249" gradientUnits="userSpaceOnUse">
<stop stop-color="white" stop-opacity="0"/>
<stop offset="0.479167" stop-color="#F8F8F8"/>
<stop offset="1" stop-color="white"/>
</linearGradient>
<linearGradient id="paint5_linear_34_826" x1="8.26196" y1="74.2212" x2="1109.26" y2="74.2212" gradientUnits="userSpaceOnUse">
<stop stop-color="white" stop-opacity="0"/>
<stop offset="0.479167" stop-color="#F8F8F8"/>
<stop offset="1" stop-color="white"/>
</linearGradient>
<linearGradient id="paint6_linear_34_826" x1="6.69043" y1="81.3333" x2="1133.24" y2="81.3333" gradientUnits="userSpaceOnUse">
<stop stop-color="white" stop-opacity="0"/>
<stop offset="0.479167" stop-color="#F8F8F8"/>
<stop offset="1" stop-color="white"/>
</linearGradient>
<linearGradient id="paint7_linear_34_826" x1="5.42334" y1="90.0188" x2="1157.57" y2="90.0188" gradientUnits="userSpaceOnUse">
<stop stop-color="white" stop-opacity="0"/>
<stop offset="0.479167" stop-color="#F8F8F8"/>
<stop offset="1" stop-color="white"/>
</linearGradient>
<linearGradient id="paint8_linear_34_826" x1="3.7002" y1="98.5785" x2="1181.59" y2="98.5785" gradientUnits="userSpaceOnUse">
<stop stop-color="white" stop-opacity="0"/>
<stop offset="0.479167" stop-color="#F8F8F8"/>
<stop offset="1" stop-color="white"/>
</linearGradient>
<linearGradient id="paint9_linear_34_826" x1="2.88892" y1="109.288" x2="1202.83" y2="109.288" gradientUnits="userSpaceOnUse">
<stop stop-color="white" stop-opacity="0"/>
<stop offset="0.479167" stop-color="#F8F8F8"/>
<stop offset="1" stop-color="white"/>
</linearGradient>
<linearGradient id="paint10_linear_34_826" x1="1.57105" y1="119.877" x2="1220.57" y2="119.877" gradientUnits="userSpaceOnUse">
<stop stop-color="white" stop-opacity="0"/>
<stop offset="0.479167" stop-color="#F8F8F8"/>
<stop offset="1" stop-color="white"/>
</linearGradient>
<linearGradient id="paint11_linear_34_826" x1="0.810548" y1="128.336" x2="1233.4" y2="128.336" gradientUnits="userSpaceOnUse">
<stop stop-color="white" stop-opacity="0"/>
<stop offset="0.479167" stop-color="#F8F8F8"/>
<stop offset="1" stop-color="white"/>
</linearGradient>
<linearGradient id="paint12_linear_34_826" x1="7.46527e-07" y1="136.531" x2="1240.19" y2="136.531" gradientUnits="userSpaceOnUse">
<stop stop-color="white" stop-opacity="0"/>
<stop offset="0.479167" stop-color="#F8F8F8"/>
<stop offset="1" stop-color="white"/>
</linearGradient>
<linearGradient id="paint13_linear_34_826" x1="0.557374" y1="144.507" x2="1241" y2="144.507" gradientUnits="userSpaceOnUse">
<stop stop-color="white" stop-opacity="0"/>
<stop offset="0.479167" stop-color="#F8F8F8"/>
<stop offset="1" stop-color="white"/>
</linearGradient>
<linearGradient id="paint14_linear_34_826" x1="2.22998" y1="152.193" x2="1241" y2="152.193" gradientUnits="userSpaceOnUse">
<stop stop-color="white" stop-opacity="0"/>
<stop offset="0.479167" stop-color="#F8F8F8"/>
<stop offset="1" stop-color="white"/>
</linearGradient>
<linearGradient id="paint15_linear_34_826" x1="4.25781" y1="159.837" x2="1240.9" y2="159.837" gradientUnits="userSpaceOnUse">
<stop stop-color="white" stop-opacity="0"/>
<stop offset="0.479167" stop-color="#F8F8F8"/>
<stop offset="1" stop-color="white"/>
</linearGradient>
<linearGradient id="paint16_linear_34_826" x1="7.24805" y1="167.258" x2="1240.7" y2="167.258" gradientUnits="userSpaceOnUse">
<stop stop-color="white" stop-opacity="0"/>
<stop offset="0.479167" stop-color="#F8F8F8"/>
<stop offset="1" stop-color="white"/>
</linearGradient>
<linearGradient id="paint17_linear_34_826" x1="11.4048" y1="174.578" x2="1240.44" y2="174.578" gradientUnits="userSpaceOnUse">
<stop stop-color="white" stop-opacity="0"/>
<stop offset="0.479167" stop-color="#F8F8F8"/>
<stop offset="1" stop-color="white"/>
</linearGradient>
<linearGradient id="paint18_linear_34_826" x1="15.3582" y1="179.908" x2="1240.14" y2="179.908" gradientUnits="userSpaceOnUse">
<stop stop-color="white" stop-opacity="0"/>
<stop offset="0.479167" stop-color="#F8F8F8"/>
<stop offset="1" stop-color="white"/>
</linearGradient>
<linearGradient id="paint19_linear_34_826" x1="19.6162" y1="187.12" x2="1239.78" y2="187.12" gradientUnits="userSpaceOnUse">
<stop stop-color="white" stop-opacity="0"/>
<stop offset="0.479167" stop-color="#F8F8F8"/>
<stop offset="1" stop-color="white"/>
</linearGradient>
<linearGradient id="paint20_linear_34_826" x1="23.9248" y1="194.391" x2="1240.14" y2="194.391" gradientUnits="userSpaceOnUse">
<stop stop-color="white" stop-opacity="0"/>
<stop offset="0.479167" stop-color="#F8F8F8"/>
<stop offset="1" stop-color="white"/>
</linearGradient>
<linearGradient id="paint21_linear_34_826" x1="27.8279" y1="201.835" x2="1240.39" y2="201.835" gradientUnits="userSpaceOnUse">
<stop stop-color="white" stop-opacity="0"/>
<stop offset="0.479167" stop-color="#F8F8F8"/>
<stop offset="1" stop-color="white"/>
</linearGradient>
<linearGradient id="paint22_linear_34_826" x1="31.1726" y1="209.26" x2="1240.59" y2="209.26" gradientUnits="userSpaceOnUse">
<stop stop-color="white" stop-opacity="0"/>
<stop offset="0.479167" stop-color="#F8F8F8"/>
<stop offset="1" stop-color="white"/>
</linearGradient>
<linearGradient id="paint23_linear_34_826" x1="34.0623" y1="216.723" x2="1240.75" y2="216.723" gradientUnits="userSpaceOnUse">
<stop stop-color="white" stop-opacity="0"/>
<stop offset="0.479167" stop-color="#F8F8F8"/>
<stop offset="1" stop-color="white"/>
</linearGradient>
<linearGradient id="paint24_linear_34_826" x1="35.7349" y1="224.44" x2="1240.8" y2="224.44" gradientUnits="userSpaceOnUse">
<stop stop-color="white" stop-opacity="0"/>
<stop offset="0.479167" stop-color="#F8F8F8"/>
<stop offset="1" stop-color="white"/>
</linearGradient>
<linearGradient id="paint25_linear_34_826" x1="36.4446" y1="232.299" x2="1240.75" y2="232.299" gradientUnits="userSpaceOnUse">
<stop stop-color="white" stop-opacity="0"/>
<stop offset="0.479167" stop-color="#F8F8F8"/>
<stop offset="1" stop-color="white"/>
</linearGradient>
<linearGradient id="paint26_linear_34_826" x1="37.3572" y1="239.898" x2="1235.32" y2="239.898" gradientUnits="userSpaceOnUse">
<stop stop-color="white" stop-opacity="0"/>
<stop offset="0.479167" stop-color="#F8F8F8"/>
<stop offset="1" stop-color="white"/>
</linearGradient>
<linearGradient id="paint27_linear_34_826" x1="40.7021" y1="246.41" x2="1220.37" y2="246.41" gradientUnits="userSpaceOnUse">
<stop stop-color="white" stop-opacity="0"/>
<stop offset="0.479167" stop-color="#F8F8F8"/>
<stop offset="1" stop-color="white"/>
</linearGradient>
<linearGradient id="paint28_linear_34_826" x1="45.4163" y1="252.244" x2="1197.66" y2="252.244" gradientUnits="userSpaceOnUse">
<stop stop-color="white" stop-opacity="0"/>
<stop offset="0.479167" stop-color="#F8F8F8"/>
<stop offset="1" stop-color="white"/>
</linearGradient>
<linearGradient id="paint29_linear_34_826" x1="52.0061" y1="258.179" x2="1169.02" y2="258.179" gradientUnits="userSpaceOnUse">
<stop stop-color="white" stop-opacity="0"/>
<stop offset="0.479167" stop-color="#F8F8F8"/>
<stop offset="1" stop-color="white"/>
</linearGradient>
<linearGradient id="paint30_linear_34_826" x1="59.0513" y1="263.701" x2="1136.28" y2="263.701" gradientUnits="userSpaceOnUse">
<stop stop-color="white" stop-opacity="0"/>
<stop offset="0.479167" stop-color="#F8F8F8"/>
<stop offset="1" stop-color="white"/>
</linearGradient>
<linearGradient id="paint31_linear_34_826" x1="66.9082" y1="266.092" x2="1101.25" y2="266.092" gradientUnits="userSpaceOnUse">
<stop stop-color="white" stop-opacity="0"/>
<stop offset="0.479167" stop-color="#F8F8F8"/>
<stop offset="1" stop-color="white"/>
</linearGradient>
<linearGradient id="paint32_linear_34_826" x1="74.4102" y1="267.78" x2="1065.67" y2="267.78" gradientUnits="userSpaceOnUse">
<stop stop-color="white" stop-opacity="0"/>
<stop offset="0.479167" stop-color="#F8F8F8"/>
<stop offset="1" stop-color="white"/>
</linearGradient>
<linearGradient id="paint33_linear_34_826" x1="81.8608" y1="269.292" x2="1031.45" y2="269.292" gradientUnits="userSpaceOnUse">
<stop stop-color="white" stop-opacity="0"/>
<stop offset="0.479167" stop-color="#F8F8F8"/>
<stop offset="1" stop-color="white"/>
</linearGradient>
<linearGradient id="paint34_linear_34_826" x1="88.6028" y1="273.533" x2="999.977" y2="273.533" gradientUnits="userSpaceOnUse">
<stop stop-color="white" stop-opacity="0"/>
<stop offset="0.479167" stop-color="#F8F8F8"/>
<stop offset="1" stop-color="white"/>
</linearGradient>
<linearGradient id="paint35_linear_34_826" x1="94.3813" y1="278.058" x2="973.822" y2="278.058" gradientUnits="userSpaceOnUse">
<stop stop-color="white" stop-opacity="0"/>
<stop offset="0.479167" stop-color="#F8F8F8"/>
<stop offset="1" stop-color="white"/>
</linearGradient>
<linearGradient id="paint36_linear_34_826" x1="98.7913" y1="283.766" x2="954.409" y2="283.766" gradientUnits="userSpaceOnUse">
<stop stop-color="white" stop-opacity="0"/>
<stop offset="0.479167" stop-color="#F8F8F8"/>
<stop offset="1" stop-color="white"/>
</linearGradient>
<linearGradient id="paint37_linear_34_826" x1="100.819" y1="290.098" x2="943.511" y2="290.098" gradientUnits="userSpaceOnUse">
<stop stop-color="white" stop-opacity="0"/>
<stop offset="0.479167" stop-color="#F8F8F8"/>
<stop offset="1" stop-color="white"/>
</linearGradient>
<linearGradient id="paint38_linear_34_826" x1="101.123" y1="297.761" x2="942.345" y2="297.761" gradientUnits="userSpaceOnUse">
<stop stop-color="white" stop-opacity="0"/>
<stop offset="0.479167" stop-color="#F8F8F8"/>
<stop offset="1" stop-color="white"/>
</linearGradient>
<linearGradient id="paint39_linear_34_826" x1="98.7913" y1="305.727" x2="946.704" y2="305.727" gradientUnits="userSpaceOnUse">
<stop stop-color="white" stop-opacity="0"/>
<stop offset="0.479167" stop-color="#F8F8F8"/>
<stop offset="1" stop-color="white"/>
</linearGradient>
<linearGradient id="paint40_linear_34_826" x1="95.1411" y1="313.455" x2="954.864" y2="313.455" gradientUnits="userSpaceOnUse">
<stop stop-color="white" stop-opacity="0"/>
<stop offset="0.479167" stop-color="#F8F8F8"/>
<stop offset="1" stop-color="white"/>
</linearGradient>
<linearGradient id="paint41_linear_34_826" x1="89.8196" y1="321.172" x2="966.016" y2="321.172" gradientUnits="userSpaceOnUse">
<stop stop-color="white" stop-opacity="0"/>
<stop offset="0.479167" stop-color="#F8F8F8"/>
<stop offset="1" stop-color="white"/>
</linearGradient>
<linearGradient id="paint42_linear_34_826" x1="83.4326" y1="328.575" x2="979.296" y2="328.575" gradientUnits="userSpaceOnUse">
<stop stop-color="white" stop-opacity="0"/>
<stop offset="0.479167" stop-color="#F8F8F8"/>
<stop offset="1" stop-color="white"/>
</linearGradient>
<linearGradient id="paint43_linear_34_826" x1="75.8293" y1="336.177" x2="994.047" y2="336.177" gradientUnits="userSpaceOnUse">
<stop stop-color="white" stop-opacity="0"/>
<stop offset="0.479167" stop-color="#F8F8F8"/>
<stop offset="1" stop-color="white"/>
</linearGradient>
<linearGradient id="paint44_linear_34_826" x1="67.9724" y1="347.342" x2="1010.06" y2="347.342" gradientUnits="userSpaceOnUse">
<stop stop-color="white" stop-opacity="0"/>
<stop offset="0.479167" stop-color="#F8F8F8"/>
<stop offset="1" stop-color="white"/>
</linearGradient>
<linearGradient id="paint45_linear_34_826" x1="60.167" y1="359.842" x2="1025.22" y2="359.842" gradientUnits="userSpaceOnUse">
<stop stop-color="white" stop-opacity="0"/>
<stop offset="0.479167" stop-color="#F8F8F8"/>
<stop offset="1" stop-color="white"/>
</linearGradient>
<linearGradient id="paint46_linear_34_826" x1="52.8674" y1="367.993" x2="1039.56" y2="367.993" gradientUnits="userSpaceOnUse">
<stop stop-color="white" stop-opacity="0"/>
<stop offset="0.479167" stop-color="#F8F8F8"/>
<stop offset="1" stop-color="white"/>
</linearGradient>
<linearGradient id="paint47_linear_34_826" x1="46.5315" y1="374.517" x2="1052.49" y2="374.517" gradientUnits="userSpaceOnUse">
<stop stop-color="white" stop-opacity="0"/>
<stop offset="0.479167" stop-color="#F8F8F8"/>
<stop offset="1" stop-color="white"/>
</linearGradient>
<linearGradient id="paint48_linear_34_826" x1="41.1587" y1="380.859" x2="1062.73" y2="380.859" gradientUnits="userSpaceOnUse">
<stop stop-color="white" stop-opacity="0"/>
<stop offset="0.479167" stop-color="#F8F8F8"/>
<stop offset="1" stop-color="white"/>
</linearGradient>
<linearGradient id="paint49_linear_34_826" x1="37.9146" y1="387.93" x2="1069.62" y2="387.93" gradientUnits="userSpaceOnUse">
<stop stop-color="white" stop-opacity="0"/>
<stop offset="0.479167" stop-color="#F8F8F8"/>
<stop offset="1" stop-color="white"/>
</linearGradient>
<linearGradient id="paint50_linear_34_826" x1="36.343" y1="395.305" x2="1072.36" y2="395.305" gradientUnits="userSpaceOnUse">
<stop stop-color="white" stop-opacity="0"/>
<stop offset="0.479167" stop-color="#F8F8F8"/>
<stop offset="1" stop-color="white"/>
</linearGradient>
</defs>
</svg>
